STARTFONT 2.1
FONT -FontForge-Knitting-Regular-R-Normal--78-750-75-75-C-780-ISO8859-1
SIZE 75 75 75
FONTBOUNDINGBOX 64 52 7 10
COMMENT "Generated by fontforge, http://fontforge.sourceforge.net"
COMMENT "Copyright (c) 2023, Jose D. Montoya"
STARTPROPERTIES 29
FOUNDRY "FontForge"
FAMILY_NAME "Knitting"
WEIGHT_NAME "Regular"
SLANT "R"
SETWIDTH_NAME "Normal"
ADD_STYLE_NAME ""
PIXEL_SIZE 78
POINT_SIZE 750
RESOLUTION_X 75
RESOLUTION_Y 75
SPACING "C"
AVERAGE_WIDTH 780
CHARSET_REGISTRY "ISO8859"
CHARSET_ENCODING "1"
FONTNAME_REGISTRY ""
CHARSET_COLLECTIONS "ISOLatin1Encoding"
FONT_NAME "Untitled2"
FACE_NAME "Untitled2"
COPYRIGHT "Copyright (c) 2023, Jose"
FONT_VERSION "001.000"
FONT_ASCENT 62
FONT_DESCENT 16
UNDERLINE_POSITION -8
UNDERLINE_THICKNESS 4
RAW_ASCENT 800
RAW_DESCENT 200
FIGURE_WIDTH -1
AVG_LOWERCASE_WIDTH 780
AVG_UPPERCASE_WIDTH 780
ENDPROPERTIES
CHARS 3
STARTCHAR A
ENCODING 65
SWIDTH 1000 0
DWIDTH 78 0
BBX 56 41 12 10
BITMAP
0000000000000F
00000000000070
00000000000380
00000000001C00
0000000000E000
00000000070000
00000000380000
00000001E00000
0000000F000000
000000F8000000
008007C0000000
01803F00000000
07C1F800000000
0FF7C000000000
1FBF0000000000
3F8F1FFF000000
7F86FFFE000000
7F060FFC000000
FF0903F8000000
FF0880E0000000
FF080040000000
7F080070000000
7F0800FC000000
3F0801FE000000
1F0403FF800000
07840FFFE00000
00EE1FFFF80000
001F3FFFFE0000
0000FFFFFF8000
0000FFFFFFC000
0003FFFFFFF000
0007FFFFFC0C00
000FFFFFFE03F8
001FFFFFFF0020
003FFFFFFF8000
007FFFFFFF8000
01FFFFFFFF8000
03FFFFFFFF8000
00007FFFFF8000
000003FFFE0000
00000000380000
ENDCHAR
STARTCHAR uni007F
ENCODING 127
SWIDTH 1000 0
DWIDTH 78 0
BBX 57 26 11 20
BITMAP
000007FFF0000000
0001FFFFFFC00000
000FFFFFFFF80000
007FFFFFFFFF0000
01FFFFFFFFFFC000
03FFFFFFFFFFF000
0FFFFFFFFFFFF800
1FFFFFFFFFFFFC00
3FFFFFFFFFFFFE00
7FFFFFFFFFFFFF00
7FFFFFFFFFFFFF00
7FFFFFFFFFFFFF80
FFFFFFFFFFFFFF80
FFFFFFFFFFFFFF80
7FFFFFFFFFFFFF80
7FFFFFFFFFFFFF00
7FFFFFFFFFFFFF00
3FFFFFFFFFFFFE00
1FFFFFFFFFFFFC00
0FFFFFFFFFFFF800
07FFFFFFFFFFF000
01FFFFFFFFFFC000
007FFFFFFFFF0000
000FFFFFFFFC0000
0001FFFFFFC00000
00000FFFF8000000
ENDCHAR
STARTCHAR uni0080
ENCODING 128
SWIDTH 1000 0
DWIDTH 78 0
BBX 64 29 7 33
BITMAP
0000000100000000
0000000100000000
E000000100000000
FC00000100000000
3F80000100000000
0FF0000100000000
01FC000100000000
003F800100000000
0007F00100000000
0001FC0100000000
00003F8100000000
000007F100000000
000001FF00000000
0000003F80000000
0000000FF0000000
0000007FFE000000
000001FD3F800000
00000FE107F00000
00007F0100FE0000
0001FC01003F8000
000FE0010007F000
007F00010000FE00
03F8000100001FC0
0FE00001000007F0
7F000001000000FE
F80000010000001F
E000000100000007
0000000100000000
0000000100000000
ENDCHAR
ENDFONT
