STARTFONT 2.1
FONT -FontForge-Knitting-Regular-R-Normal--78-750-75-75-C-780-ISO8859-1
SIZE 75 75 75
FONTBOUNDINGBOX 64 40 7 20
COMMENT "Generated by fontforge, http://fontforge.sourceforge.net"
COMMENT "Copyright (c) 2023, Jose"
STARTPROPERTIES 27
FOUNDRY "FontForge"
FAMILY_NAME "Knitting"
WEIGHT_NAME "Regular"
SLANT "R"
SETWIDTH_NAME "Normal"
ADD_STYLE_NAME ""
PIXEL_SIZE 78
POINT_SIZE 750
RESOLUTION_X 75
RESOLUTION_Y 75
SPACING "C"
AVERAGE_WIDTH 780
CHARSET_REGISTRY "ISO8859"
CHARSET_ENCODING "1"
FONTNAME_REGISTRY ""
CHARSET_COLLECTIONS "ISOLatin1Encoding"
FONT_NAME "Knitting"
FACE_NAME "Knitting"
COPYRIGHT "Copyright (c) 2023, Jose"
FONT_VERSION "001.000"
FONT_ASCENT 62
FONT_DESCENT 16
UNDERLINE_POSITION -8
UNDERLINE_THICKNESS 4
RAW_ASCENT 800
RAW_DESCENT 200
FIGURE_WIDTH -1
ENDPROPERTIES
CHARS 3
STARTCHAR uni007F
ENCODING 127
SWIDTH 1000 0
DWIDTH 78 0
BBX 56 26 12 20
BITMAP
00000010000000
0007FFFFFFC000
003FFFFFFFF800
00FFFFFFFFFF00
03FFFFFFFFFFC0
0FFFFFFFFFFFE0
1FFFFFFFFFFFF8
3FFFFFFFFFFFFC
7FFFFFFFFFFFFC
FFFFFFFFFFFFFE
FFFFFFFFFFFFFF
FFFFFFFFFFFFFF
FFFFFFFFFFFFFF
FFFFFFFFFFFFFF
FFFFFFFFFFFFFF
FFFFFFFFFFFFFE
7FFFFFFFFFFFFE
7FFFFFFFFFFFFC
3FFFFFFFFFFFF8
0FFFFFFFFFFFF0
07FFFFFFFFFFC0
01FFFFFFFFFF80
007FFFFFFFFC00
000FFFFFFFF000
0000FFFFFF0000
000003FFC00000
ENDCHAR
STARTCHAR uni0080
ENCODING 128
SWIDTH 998 0
DWIDTH 78 0
BBX 64 25 7 35
BITMAP
C000000000000000
F800000000000000
3F00000000000000
07C0000000000000
00F8000000000000
003F000000000000
0007C00000000000
0000F80000000000
00001F0000000000
000007E000000000
000000F800000000
0000001F00000000
00000007E0000000
00000000FC000000
000001801F000000
00000F8003E00000
00003E0000FC0000
0001F800001F0000
000FC0000007E000
003F00000000FC00
01F8000000001F80
0FC00000000003E0
3F0000000000007C
F80000000000001F
6000000000000002
ENDCHAR
STARTCHAR uni0081
ENCODING 129
SWIDTH 1000 0
DWIDTH 78 0
BBX 64 25 7 35
BITMAP
0000000000000006
000000000000003F
00000000000000FC
00000000000007E0
0000000000003F80
000000000000FC00
000000000007E000
00000000003F8000
0000000000FC0000
0000000007E00000
000000003F800000
00000001FC000000
00000007E0000000
0000003F00000000
000001FC03800000
000007E003F80000
00003F0000FE0000
0001FC00003FC000
0007E0000007F000
003F00000000FC00
01FC000000003F80
07E00000000007E0
3F000000000000FC
FC0000003FFFE03F
600000003FFFE007
ENDCHAR
ENDFONT
